<svg xmlns="http://www.w3.org/2000/svg" viewBox="0 0 837.12 732.66"><defs><style>.cls-1{fill:#84695a;}</style></defs><g id="레이어_2" data-name="레이어 2"><g id="element"><path class="cls-1" d="M400.07,732.66A139.93,139.93,0,0,1,354,724.94C312.75,710.74,277,688,250.47,659.21c-37.08-40.33-44.57-111.69-47-169.36-2.74-66.49,2.63-130,16-188.71,9.75-42.89,22.34-74.83,39.6-100.53,32.31-48.1,83.62-78.28,133.23-107.47,28.57-16.81,58.12-34.19,84-54.89,2.54-2,5.11-4.15,7.6-6.19C496.26,21.91,509,11.41,524.17,5.88,539.63.24,556.86.13,572.07,0c71-.45,139,2.41,190.1,41.7,29.87,23,52.75,59.09,64.45,101.74C836,177.49,839,216.1,836.06,265a709.67,709.67,0,0,1-50.62,225.79c-21.14,52-44.35,88.72-73.07,115.45-33.28,31-76.62,50.28-114.64,65.94C559.36,688,520,702.69,480.65,716,454.16,724.87,427.83,732.66,400.07,732.66ZM583.3,1c-3.74,0-7.47,0-11.23,0-15.12.09-32.26.2-47.56,5.78-15,5.48-27.68,15.91-39.95,26C482.07,34.88,479.5,37,477,39,451,59.78,421.44,77.18,392.84,94c-49.52,29.13-100.72,59.25-132.91,107.17-17.19,25.59-29.73,57.43-39.45,100.19-13.34,58.65-18.71,122.05-16,188.45,2.38,57.5,9.83,128.64,46.69,168.72,26.38,28.68,62,51.31,103.12,65.46,45.38,15.63,85.5,4.66,126-9l.16.47-.16-.47c39.29-13.25,78.67-28,117-43.78,72.35-29.81,97-49.56,114.34-65.75,28.6-26.62,51.74-63.19,72.83-115.09a708.8,708.8,0,0,0,50.54-225.47c2.88-48.76-.11-87.26-9.41-121.17C814,101.3,791.26,65.36,761.57,42.53,713.41,5.51,650.05,1,583.3,1Z"/><path class="cls-1" d="M430.6,347.51a9.44,9.44,0,0,0-3.11,3.75c-.25.77-.49,1.55-.74,2.32a9.41,9.41,0,0,0,.43,5,10.53,10.53,0,0,0,4.94,5.37,7,7,0,0,0,3.55.8,7.15,7.15,0,0,0,3.73-.49l2.26-1.19a9.56,9.56,0,0,0,3.11-3.74l.74-2.33a9.53,9.53,0,0,0-.43-5,10.53,10.53,0,0,0-4.94-5.37,7.14,7.14,0,0,0-3.55-.8,7.25,7.25,0,0,0-3.73.49Z"/><path class="cls-1" d="M365.67,388.05c3.84,10.5,20.17,4.55,16.32-6S361.82,377.52,365.67,388.05Z"/><path class="cls-1" d="M283.09,407.2c4.34,11.86,22.78,5.14,18.44-6.75S278.74,395.31,283.09,407.2Z"/><path class="cls-1" d="M244,289.93a4.07,4.07,0,0,0-1.77,1.25,6.3,6.3,0,0,0-1.92,2.52c-.21.68-.43,1.35-.64,2,0,.72-.07,1.43-.1,2.15a9.29,9.29,0,0,0,3,5.71l.48.42a2.09,2.09,0,0,0,.22.2,6.64,6.64,0,0,0,1.89,1.21,6.55,6.55,0,0,0,3.21.71,2.41,2.41,0,0,0,1.19,0,8.62,8.62,0,0,0,4.26-1.56l.12-.09.11-.1a8,8,0,0,0,2.61-3.13,5.92,5.92,0,0,0,.66-2.94c0-.35.05-.71.05-1.07v-.15a8.42,8.42,0,0,0-1.6-4.48,8.59,8.59,0,0,0-3.38-2.8l-2.09-.67-.29,0-.69-.09-2.14-.11A6.34,6.34,0,0,0,244,289.93Z"/><path class="cls-1" d="M315,309.91c2.13,5.81,11.16,2.52,9-3.3S312.87,304.09,315,309.91Z"/><path class="cls-1" d="M364.24,270.79l-.74.83a4.46,4.46,0,0,0,2.65,7.23l1.1.16a5.05,5.05,0,0,0,2.64-.23,4.87,4.87,0,0,0,2.16-1.53,5.07,5.07,0,0,0-5.65-8A4.93,4.93,0,0,0,364.24,270.79Z"/><path class="cls-1" d="M329.31,217.47a9.42,9.42,0,0,0,3.23,8.85l.52.44a8.94,8.94,0,0,0,14.49-5.3l.12-.67a9.33,9.33,0,1,0-18.36-3.32Z"/><path class="cls-1" d="M296.48,249.09a6.64,6.64,0,0,0-2.06,2.72,8.87,8.87,0,0,0-.81,4.48,9.09,9.09,0,0,0,1.63,4.46l.57,1c.52.55,1,1.1,1.54,1.66a6.66,6.66,0,0,0,3,1.52,4.33,4.33,0,0,0,2.19.4,6.72,6.72,0,0,0,3.42-.45l2.07-1.09,1.65-1.54a6.58,6.58,0,0,0,1.53-3,6.46,6.46,0,0,0,.45-3.32l-.21-1.13a8.91,8.91,0,0,0-5.14-7.37l-2.18-.69a8.94,8.94,0,0,0-4.64.4A6.78,6.78,0,0,0,296.48,249.09Z"/><path class="cls-1" d="M321.28,347.66c3.52,9.64,18.51,4.18,15-5.48S317.75,338,321.28,347.66Z"/><path class="cls-1" d="M261.12,364.13c3.48,9.52,18.28,4.12,14.79-5.41S257.64,354.6,261.12,364.13Z"/><path class="cls-1" d="M203.92,401.58l-1.3,1.21a7.6,7.6,0,0,0-1.56,4.94l.12,1.15a7.17,7.17,0,0,0,4.13,5.91l1.74.55a7.08,7.08,0,0,0,3.73-.32,5.41,5.41,0,0,0,2.38-1.53,5.34,5.34,0,0,0,1.65-2.18,7.25,7.25,0,0,0-.66-7.17l-.65-1c-.4-.43-.8-.87-1.21-1.3a5.14,5.14,0,0,0-2.32-1.21,3.55,3.55,0,0,0-1.73-.31,5.19,5.19,0,0,0-2.69.36Z"/><path class="cls-1" d="M124.36,378.23c3.35,9.15,17.57,4,14.22-5.2S121,369.07,124.36,378.23Z"/><path class="cls-1" d="M299.77,170.29c3.55,9.68,18.6,4.2,15.05-5.5S296.23,160.59,299.77,170.29Z"/><path class="cls-1" d="M357.25,142l-1.62,1.51a8.53,8.53,0,0,0-1.82,3.92,21,21,0,0,0-.84,3.5c-.07.52-.16,1.05-.21,1.58a10.54,10.54,0,0,0,.14,3.5c.12.57.24,1.11.39,1.66a7.1,7.1,0,0,0,4.8,4.52c2.08.66,4.87.56,6.61-1a14.23,14.23,0,0,0,2.74-3,25.59,25.59,0,0,0,1.34-2.47,34.57,34.57,0,0,0,1.8-5.28c.6-2-.31-4.86-1.45-6.46a8.73,8.73,0,0,0-5.42-3.44A8.6,8.6,0,0,0,357.25,142Z"/><path class="cls-1" d="M407,262.75a7.68,7.68,0,0,0-2.55,3.07l-.6,1.9a7.73,7.73,0,0,0,.35,4.07l.34,1.24a8.83,8.83,0,0,0,4.1,4.46,5.88,5.88,0,0,0,3,.66,6,6,0,0,0,3.1-.4l1.88-1a7.94,7.94,0,0,0,2.58-3.11l.61-1.93a7.82,7.82,0,0,0-.36-4.12l-.53-1.17a7.58,7.58,0,0,0-7-5.06,6,6,0,0,0-3.06.4Z"/><path class="cls-1" d="M196.3,282.58a8,8,0,0,0-2.57,3.09l-.6,1.92a7.83,7.83,0,0,0,.35,4.1,8.75,8.75,0,0,0,4.08,4.44,7.83,7.83,0,0,0,4,.71,8,8,0,0,0,3.93-1.44,5.43,5.43,0,0,0,2.08-1.72,7.71,7.71,0,0,0,1.65-3.57,7.58,7.58,0,0,0-.35-4,7.7,7.7,0,0,0-5.89-5,3.19,3.19,0,0,0-1.07-.06,2.05,2.05,0,0,0-1.07,0l-.19,0-.38.08A8,8,0,0,0,196.3,282.58Z"/><path class="cls-1" d="M3.3,328.58a8,8,0,0,0-2.57,3.09l-.6,1.92a7.83,7.83,0,0,0,.35,4.1,5.82,5.82,0,0,0,1.68,2.62,5.78,5.78,0,0,0,2.4,1.82,7.83,7.83,0,0,0,4,.71,8,8,0,0,0,3.93-1.44,5.43,5.43,0,0,0,2.08-1.72,7.71,7.71,0,0,0,1.65-3.57,7.58,7.58,0,0,0-.35-4,7.7,7.7,0,0,0-5.89-5,3.19,3.19,0,0,0-1.07-.06,2.05,2.05,0,0,0-1.07,0l-.19,0-.38.08A8,8,0,0,0,3.3,328.58Z"/></g></g></svg>