<svg id="레이어_1" data-name="레이어 1" xmlns="http://www.w3.org/2000/svg" viewBox="0 0 909.38 1094.63"><defs><style>.cls-1{fill:#b58f7d;}</style></defs><path class="cls-1" d="M910.36,452.24c9.94,30.58,43.71,48.88,75.86,48.77s62.47-15.25,88.66-33.92c30-21.37,56.82-48.61,71.4-82.4,27.1-62.79-10.5-173.86-93-134.3C997.25,277.29,887.64,382.37,910.36,452.24Z" transform="translate(-272.16 -190.28)"/><path class="cls-1" d="M614.25,340.93c6.75,32.36,26.33,65.26,58.18,74.15,27,7.52,56.85-4.69,75.41-25.65s27.06-49.21,29.44-77.1c5-58.82-32.77-135.38-103.94-120.07C614.87,204.85,604.31,293.29,614.25,340.93Z" transform="translate(-272.16 -190.28)"/><path class="cls-1" d="M727.86,645.18c16.59,25,39.13,47.72,67.89,56.29C837.12,713.81,885.46,691.1,904,652.1,943.83,568,861.22,513,788.9,503,702.73,491.15,687.44,584.25,727.86,645.18Z" transform="translate(-272.16 -190.28)"/><path class="cls-1" d="M445.23,650c17.48,21.47,44.14,35.88,71.83,36.19,92.29,1.05,97.66-119,18.21-147C471.65,516.71,397,590.66,445.23,650Z" transform="translate(-272.16 -190.28)"/><path class="cls-1" d="M599.41,884.75c-7,42.78,9.26,88.68,41.7,117.44,32.13,28.48,83.43,38.35,118.6,13.73,27.4-19.18,39.6-55.34,35.91-88.58s-21.22-63.61-43.17-88.84c-23.14-26.61-53.06-61.25-89.73-46.38C629.83,805.46,604.79,852.07,599.41,884.75Z" transform="translate(-272.16 -190.28)"/><path class="cls-1" d="M1006.62,766.21c-16.85,22.8-28.15,51-25.32,79.18S1003.45,901,1031,907.84c35.62,8.84,70.13-17,95.21-43.78,19.23-20.52,37-43.09,47.15-69.32s11.89-56.71-.39-82C1130,624.3,1040.18,720.79,1006.62,766.21Z" transform="translate(-272.16 -190.28)"/><path class="cls-1" d="M360.24,1098c-35.17,5.76-70.07,26.41-82.86,59.67a83.21,83.21,0,0,0-1.85,52.49c10,34.75,41.45,60.87,76.38,70.19s72.61,3.52,106.09-10.15c27.2-11.11,53.06-28.08,68.62-53C594.23,1108.91,430.23,1086.55,360.24,1098Z" transform="translate(-272.16 -190.28)"/><path class="cls-1" d="M673.62,1227.09c15.44,34.7,62.06,51.33,96,34.25s48.33-64.4,29.7-97.5C755.87,1086.67,638,1147,673.62,1227.09Z" transform="translate(-272.16 -190.28)"/></svg>