<svg id="레이어_1" data-name="레이어 1" xmlns="http://www.w3.org/2000/svg" viewBox="0 0 1458.45 1443.27"><defs><style>.cls-1{fill:#84695a;}</style></defs><path class="cls-1" d="M363,291.29A613.17,613.17,0,0,1,164.91,186.06c-36.32-28.87-69.4-62-101.39-94L20.78,49.34l21-21L84.5,71.1c31.4,31.43,63.89,63.91,98.89,91.72A583.06,583.06,0,0,0,371.91,263Z" transform="translate(-20.78 -28.36)"/><path class="cls-1" d="M301,579.56A561.15,561.15,0,0,1,224.71,389c-8.35-41.67-11.93-84.26-15.38-125.46l-4.63-55,29.57-2.5,4.62,55c3.39,40.36,6.91,82.11,14.91,122.1a531.51,531.51,0,0,0,72.31,180.55Z" transform="translate(-20.78 -28.36)"/><path class="cls-1" d="M1000.69,480.7c-76.64-75.55-155.2-152.47-252.25-199-90.34-43.32-279.17-84.85-371.68-25.44a76.12,76.12,0,0,0-13.26,10.89c61.21-1.09,115,35.25,150.3,67,20.39,18.38,39.18,38.83,57.36,58.6,20.55,22.35,41.79,45.46,65.12,65.29,35.34,30,76.53,53.56,116.35,76.3L980.1,664.3l-3.81,5.33L738.87,559.29c-40.42-23.08-83.83-46.68-120.23-77.62-24-20.42-46.88-50.37-67.73-73.06C533,389.1,513.7,371,493.84,353.06c-35.33-31.87-80-76.48-141-70.44l-.1-1.09C308.63,362.71,457.1,521.69,509.12,568.68c99.48,89.84,220.61,151.47,340.19,212,197.39,100,410.85,202.88,629.91,171.68Z" transform="translate(-20.78 -28.36)"/><path class="cls-1" d="M507,984.94c-5.45-78-4.56-155.62-24.67-227.2-20.6-65.86-75.84-185.91-150.08-216.86-10.85-4.55-21.13-5.39-30.84-3.28,33.55,42.56,42.7,98.94,43.95,141.84.81,27.44-1,55.15-2.72,81.95-1.95,30.3-4,61.62-2.18,92.19,2.71,46.31,14.18,92.33,25.26,136.83l63.32,254.17-3.73,1.86L347,999.89c-11.25-45.16-34.5-91.57-37.29-139.26-1.83-31.47,10.95-68.94,12.94-99.69,1.71-26.45,8.72-54.33,7.95-81.08-1.21-41.76-10.05-96.9-43.68-136.75-59.74,32.76-93.4,177.85-92.46,231.06-5.49,108.85,27.34,216,70.23,315.91,68.43,165.1,185.54,332.5,363.61,381.56A1446,1446,0,0,1,507,984.94Z" transform="translate(-20.78 -28.36)"/></svg>