<svg xmlns="http://www.w3.org/2000/svg" viewBox="0 0 538.61 597"><defs><style>.cls-1{fill:#84695a;opacity:0.24;}</style></defs><g id="레이어_2" data-name="레이어 2"><g id="element"><path class="cls-1" d="M371.39,482.1c56.91-68.78,59.52-153,104.72-225.85,15.05-24.25,34.75-47.08,48.12-71.81S544.34,132,532.47,107c-10-21-31.83-38.14-53.15-54.6-20.87-16.11-42.45-32.6-70.46-42.15C365.63-4.54,314.53-.47,267,4.88c-57.3,6.46-119.28,16.29-155.44,47.8C94.45,67.59,85,85.94,76.36,104,13.68,235.26-22,376.23,15,512.07c10.18,37.31,35.76,87.54,101.63,84.82,65.65-2.7,132.59-25.65,182.1-54.7C327.65,525.23,352.53,504.9,371.39,482.1Z"/></g></g></svg>