<svg xmlns="http://www.w3.org/2000/svg" viewBox="0 0 747.59 1054.76"><defs><style>.cls-1{fill:#fea30b;}.cls-2{fill:#98a86f;}</style></defs><g id="레이어_2" data-name="레이어 2"><g id="element"><path class="cls-1" d="M641.61,378.5c-99.88-107.31-264.17-140.19-398.8-92l-7.52-1.28a12,12,0,0,0,0,4.09c-42.1,16.17-81.08,40.41-114,73C54.21,428.65,22.54,520.16,7.74,611.55-.8,664.28-4.35,718.78,8.08,770.73,30.76,865.43,104.57,941,188.57,990.3c113.84,66.76,261.8,91,377.4,27.36,96.89-53.37,155.65-160.19,174.56-269.18C763.15,618.13,731.75,475.34,641.61,378.5Z"/><path class="cls-2" d="M308.78,340h-1.73c-99.32-44.7-206.59-41.16-252.74-129.5C31.86,167.54,44.37,45.71,31,0c81.17,11.76,144.64,66.93,192,125.27,31.61,39,59,81.23,73.3,127.23C305.59,282.47,305.19,309.11,308.78,340Z"/></g></g></svg>